<?xml version="1.0" encoding="UTF-8"?>
<svg version="1.1" xmlns="http://www.w3.org/2000/svg" width="500" height="500">
<path d="M0 0 C1.43472656 0.05994141 1.43472656 0.05994141 2.8984375 0.12109375 C3.86007812 0.14300781 4.82171875 0.16492188 5.8125 0.1875 C8.2734375 0.55859375 8.2734375 0.55859375 10.2734375 2.55859375 C9.90816596 7.1172976 8.45826981 11.00554964 6.74609375 15.21875 C6.48561752 15.86494293 6.2251413 16.51113586 5.95677185 17.1769104 C5.3881067 18.58545391 4.81663189 19.99286563 4.24267578 21.39926147 C3.31782841 23.66546747 2.40021035 25.93448384 1.484375 28.2043457 C0.14455902 31.52362887 -1.19808226 34.84174992 -2.54248047 38.15917969 C-6.06734711 46.86466244 -9.55782365 55.583954 -13.04788208 64.30343628 C-14.19919003 67.17775649 -15.35319578 70.05098174 -16.50756836 72.92407227 C-20.71818682 83.4206438 -24.79562644 93.95437039 -28.7265625 104.55859375 C-29.77164604 107.33703119 -30.83503082 110.10550835 -31.9140625 112.87109375 C-32.38199219 114.08410156 -32.84992188 115.29710937 -33.33203125 116.546875 C-35.40483397 121.02343213 -35.40483397 121.02343213 -37.7265625 122.55859375 C-40.35546875 122.95703125 -40.35546875 122.95703125 -43.2890625 122.93359375 C-44.25972656 122.94132812 -45.23039063 122.9490625 -46.23046875 122.95703125 C-47.05417969 122.82554687 -47.87789062 122.6940625 -48.7265625 122.55859375 C-50.7265625 119.55859375 -50.7265625 119.55859375 -50.56640625 116.91479492 C-49.51344863 112.70694366 -47.96931303 108.85141764 -46.2890625 104.859375 C-45.7609346 103.58196442 -45.7609346 103.58196442 -45.22213745 102.27874756 C-44.46037963 100.4372159 -43.69594968 98.59678779 -42.92913818 96.75735474 C-40.87064544 91.81683632 -38.83429156 86.8672078 -36.796875 81.91796875 C-36.3766507 80.8982045 -35.95642639 79.87844025 -35.52346802 78.82777405 C-31.12285146 68.12904137 -26.84772778 57.3818888 -22.6015625 46.62109375 C-22.26092773 45.75972809 -21.92029297 44.89836243 -21.56933594 44.01089478 C-20.57571417 41.49753647 -19.58423456 38.98334615 -18.59375 36.46875 C-18.11817657 35.26355461 -18.11817657 35.26355461 -17.63299561 34.03401184 C-15.9089198 29.64411993 -14.23072579 25.24089088 -12.59863281 20.81591797 C-12.24495636 19.86406113 -11.89127991 18.91220428 -11.52688599 17.9315033 C-10.85036501 16.10519768 -10.18149834 14.27603148 -9.521698 12.44361877 C-5.30478205 1.08679632 -5.30478205 1.08679632 0 0 Z " fill="#F7F8F8" transform="translate(267.7265625,195.44140625)"/>
<path d="M0 0 C3.81625073 0.41318193 7.2663574 1.74116243 10.84423828 3.08544922 C11.99538116 3.51614716 13.14652405 3.94684509 14.33255005 4.39059448 C16.18274246 5.09057053 16.18274246 5.09057053 18.0703125 5.8046875 C19.35631381 6.2894228 20.64235571 6.77405046 21.92843628 7.25857544 C24.61758607 8.27293111 27.30548376 9.29052858 29.99267578 10.31005859 C33.43397496 11.61508398 36.8793481 12.9089658 40.32588387 14.20008659 C42.98056011 15.19654544 45.63240167 16.20037982 48.28350449 17.20630264 C49.55275423 17.686558 50.82300753 18.16416983 52.09427261 18.63906479 C53.87061314 19.30355753 55.64268963 19.97941542 57.41455078 20.65576172 C58.92748215 21.22748611 58.92748215 21.22748611 60.47097778 21.8107605 C62.9201215 22.96243818 64.34243858 23.881854 66 26 C66.36328125 28.33984375 66.36328125 28.33984375 66.3125 30.9375 C66.30863281 31.79214844 66.30476563 32.64679688 66.30078125 33.52734375 C65.96864752 36.25774185 65.50837048 37.70217309 64 40 C61.67871094 41.28930664 61.67871094 41.28930664 58.734375 42.41015625 C57.63037354 42.8376416 56.52637207 43.26512695 55.38891602 43.70556641 C54.18807373 44.15335449 52.98723145 44.60114258 51.75 45.0625 C50.51757568 45.53349121 49.28515137 46.00448242 48.01538086 46.48974609 C44.70513036 47.75223603 41.38769222 48.9945641 38.06732178 50.23016357 C35.98340319 51.00618038 33.90098614 51.78611535 31.81884766 52.56689453 C27.73696241 54.09594211 23.65090998 55.61349323 19.5625 57.125 C18.91575317 57.36469513 18.26900635 57.60439026 17.60266113 57.85134888 C15.75883708 58.53283241 13.91266406 59.20795026 12.06640625 59.8828125 C11.01396729 60.26840332 9.96152832 60.65399414 8.87719727 61.05126953 C6.21397537 61.92944351 3.78999761 62.70668878 1 63 C0.01 62.34 -0.98 61.68 -2 61 C-2.43359375 58.7578125 -2.43359375 58.7578125 -2.4375 56.125 C-2.45683594 55.26132812 -2.47617187 54.39765625 -2.49609375 53.5078125 C-1.83390928 50.1603918 -0.58859221 49.20061088 2 47 C4.92578125 45.59960938 4.92578125 45.59960938 8.3125 44.34375 C9.22684814 44.00023499 9.22684814 44.00023499 10.15966797 43.64978027 C12.10279659 42.92290348 14.05120069 42.21151248 16 41.5 C17.27770087 41.0230911 18.55504825 40.54523402 19.83203125 40.06640625 C27.49883447 37.206848 35.21797074 34.52879722 43 32 C39.45583924 29.63722616 35.79099902 28.44634866 31.7890625 27.1015625 C30.13530198 26.53418833 28.4816598 25.96646917 26.828125 25.3984375 C24.22697668 24.51012081 21.62486695 23.6249551 19.02050781 22.74609375 C16.5026865 21.89440751 13.98947433 21.03010914 11.4765625 20.1640625 C10.70245026 19.90662262 9.92833801 19.64918274 9.13076782 19.38394165 C4.76812822 17.87036299 1.35940911 16.30500738 -2 13 C-2.55859375 10.2734375 -2.55859375 10.2734375 -2.4375 7.375 C-2.41558594 6.41335937 -2.39367187 5.45171875 -2.37109375 4.4609375 C-2 2 -2 2 0 0 Z " fill="#F8F9F9" transform="translate(286,223)"/>
<path d="M0 0 C1.01439508 4.62113312 1.13222133 8.38402071 0 13 C-3.05144467 15.87939273 -6.41259651 17.01725074 -10.34765625 18.33984375 C-11.59353516 18.76330078 -12.83941406 19.18675781 -14.12304688 19.62304688 C-15.43609956 20.06149258 -16.74925117 20.49964216 -18.0625 20.9375 C-19.98556618 21.58579263 -21.90791714 22.23617066 -23.83016968 22.88687134 C-25.69904228 23.5193521 -27.56851175 24.1500683 -29.43798828 24.78076172 C-34.31780687 26.45107111 -39.16372651 28.20797394 -44 30 C-40.85953618 32.09364255 -38.04835047 33.16310772 -34.49609375 34.42578125 C-33.18420794 34.89768403 -31.87236026 35.3696928 -30.56054688 35.84179688 C-28.51010997 36.57432197 -26.45899938 37.30487169 -24.40698242 38.03295898 C-2.43466135 45.84800797 -2.43466135 45.84800797 1 51 C1.37109375 52.9375 1.37109375 52.9375 1.4375 55 C1.49744141 56.0209375 1.49744141 56.0209375 1.55859375 57.0625 C1 59 1 59 -1.00390625 60.91015625 C-5.3270743 62.48272976 -8.29172592 61.04927496 -12.375 59.4375 C-13.2191748 59.12321045 -14.06334961 58.8089209 -14.93310547 58.48510742 C-17.96489588 57.34705037 -20.98191011 56.1738997 -24 55 C-25.93684871 54.25671361 -27.87466651 53.51598686 -29.81246948 52.77519226 C-37.08708114 49.99242798 -44.35180042 47.18493891 -51.59863281 44.33056641 C-53.75291379 43.48784236 -55.91315208 42.6600643 -58.08105469 41.85302734 C-58.97985352 41.51352051 -59.87865234 41.17401367 -60.8046875 40.82421875 C-61.57538574 40.54022217 -62.34608398 40.25622559 -63.14013672 39.96362305 C-65 39 -65 39 -67 36 C-67.30078125 33.40625 -67.30078125 33.40625 -67.3125 30.5 C-67.32925781 29.5409375 -67.34601563 28.581875 -67.36328125 27.59375 C-66.93228032 24.51649607 -66.32897179 23.95336979 -64 22 C-62.1658783 21.07891846 -62.1658783 21.07891846 -60.08959961 20.30175781 C-59.30705307 20.00424622 -58.52450653 19.70673462 -57.71824646 19.40020752 C-56.44812462 18.93140167 -56.44812462 18.93140167 -55.15234375 18.453125 C-54.26704483 18.11883484 -53.38174591 17.78454468 -52.46961975 17.44012451 C-49.62839436 16.36908047 -46.7831418 15.30924729 -43.9375 14.25 C-41.15663305 13.20641718 -38.37663767 12.16054256 -35.59683228 11.11413574 C-33.76180009 10.42457427 -31.9258419 9.73747195 -30.08895874 9.05285645 C-25.62126768 7.3842206 -21.1739929 5.68119114 -16.75439453 3.88867188 C-15.93089005 3.5572821 -15.10738556 3.22589233 -14.25892639 2.88446045 C-12.71389402 2.259581 -11.17246748 1.62568244 -9.63548279 0.98126221 C-5.94436232 -0.50631708 -3.79467483 -1.21986697 0 0 Z " fill="#F8F8F9" transform="translate(215,224)"/>
<path d="M0 0 C3.81625073 0.41318193 7.2663574 1.74116243 10.84423828 3.08544922 C11.99538116 3.51614716 13.14652405 3.94684509 14.33255005 4.39059448 C16.18274246 5.09057053 16.18274246 5.09057053 18.0703125 5.8046875 C19.35631381 6.2894228 20.64235571 6.77405046 21.92843628 7.25857544 C24.61758607 8.27293111 27.30548376 9.29052858 29.99267578 10.31005859 C33.43397496 11.61508398 36.8793481 12.9089658 40.32588387 14.20008659 C42.98056011 15.19654544 45.63240167 16.20037982 48.28350449 17.20630264 C49.55275423 17.686558 50.82300753 18.16416983 52.09427261 18.63906479 C53.87061314 19.30355753 55.64268963 19.97941542 57.41455078 20.65576172 C58.92748215 21.22748611 58.92748215 21.22748611 60.47097778 21.8107605 C62.9201215 22.96243818 64.34243858 23.881854 66 26 C66.36328125 28.33984375 66.36328125 28.33984375 66.3125 30.9375 C66.30863281 31.79214844 66.30476563 32.64679688 66.30078125 33.52734375 C65.96864752 36.25774185 65.50837048 37.70217309 64 40 C61.67871094 41.28930664 61.67871094 41.28930664 58.734375 42.41015625 C57.63037354 42.8376416 56.52637207 43.26512695 55.38891602 43.70556641 C54.18807373 44.15335449 52.98723145 44.60114258 51.75 45.0625 C50.51757568 45.53349121 49.28515137 46.00448242 48.01538086 46.48974609 C44.70513036 47.75223603 41.38769222 48.9945641 38.06732178 50.23016357 C35.98340319 51.00618038 33.90098614 51.78611535 31.81884766 52.56689453 C27.73696241 54.09594211 23.65090998 55.61349323 19.5625 57.125 C18.91575317 57.36469513 18.26900635 57.60439026 17.60266113 57.85134888 C15.75883708 58.53283241 13.91266406 59.20795026 12.06640625 59.8828125 C11.01396729 60.26840332 9.96152832 60.65399414 8.87719727 61.05126953 C6.21397537 61.92944351 3.78999761 62.70668878 1 63 C0.01 62.34 -0.98 61.68 -2 61 C-2.43359375 58.7578125 -2.43359375 58.7578125 -2.4375 56.125 C-2.45683594 55.26132812 -2.47617187 54.39765625 -2.49609375 53.5078125 C-1.83390928 50.1603918 -0.58859221 49.20061088 2 47 C4.92578125 45.59960938 4.92578125 45.59960938 8.3125 44.34375 C9.22684814 44.00023499 9.22684814 44.00023499 10.15966797 43.64978027 C12.10279659 42.92290348 14.05120069 42.21151248 16 41.5 C17.27770087 41.0230911 18.55504825 40.54523402 19.83203125 40.06640625 C27.49883447 37.206848 35.21797074 34.52879722 43 32 C39.45583924 29.63722616 35.79099902 28.44634866 31.7890625 27.1015625 C30.13530198 26.53418833 28.4816598 25.96646917 26.828125 25.3984375 C24.22697668 24.51012081 21.62486695 23.6249551 19.02050781 22.74609375 C16.5026865 21.89440751 13.98947433 21.03010914 11.4765625 20.1640625 C10.70245026 19.90662262 9.92833801 19.64918274 9.13076782 19.38394165 C4.76812822 17.87036299 1.35940911 16.30500738 -2 13 C-2.55859375 10.2734375 -2.55859375 10.2734375 -2.4375 7.375 C-2.41558594 6.41335937 -2.39367187 5.45171875 -2.37109375 4.4609375 C-2 2 -2 2 0 0 Z M1 3 C1 6.3 1 9.6 1 13 C9.57288357 16.40359741 18.17535119 19.71549966 26.83984375 22.87890625 C27.8545575 23.24943871 27.8545575 23.24943871 28.88977051 23.62745667 C32.30968997 24.87476528 35.73136046 26.11708261 39.15478516 27.35473633 C40.4274206 27.81718774 41.7000448 28.27967007 42.97265625 28.7421875 C44.67820679 29.35876221 44.67820679 29.35876221 46.41821289 29.98779297 C49 31 49 31 50 32 C33.83 37.94 17.66 43.88 1 50 C1 53.3 1 56.6 1 60 C4.66362569 59.35622413 7.99354698 58.36485236 11.47705078 57.06640625 C12.54811066 56.66929443 13.61917053 56.27218262 14.72268677 55.86303711 C15.86865326 55.43385986 17.01461975 55.00468262 18.1953125 54.5625 C19.37970917 54.12236572 20.56410583 53.68223145 21.78439331 53.22875977 C24.92420497 52.06130003 28.06279447 50.89066724 31.20080566 49.71838379 C35.62811072 48.06548204 40.05781927 46.41902655 44.48703003 44.77124023 C46.8434615 43.89414849 49.1995311 43.0160838 51.5552063 42.13696289 C52.61996185 41.73985107 53.68471741 41.34273926 54.78173828 40.93359375 C55.71929962 40.58353271 56.65686096 40.23347168 57.62283325 39.87280273 C59.40452681 39.21863449 61.19940809 38.6001973 63 38 C63 34.04 63 30.08 63 26 C50.32357466 20.78770585 37.53172223 15.90523795 24.6875 11.125 C23.52980606 10.69267563 23.52980606 10.69267563 22.34872437 10.25161743 C20.11251319 9.41728647 17.87488113 8.58689309 15.63671875 7.7578125 C14.97063599 7.50912918 14.30455322 7.26044586 13.61828613 7.00422668 C9.45121635 5.46808963 5.27947774 4.17174942 1 3 Z " fill="#282D33" transform="translate(286,223)"/>
<path d="M0 0 C1.01439508 4.62113312 1.13222133 8.38402071 0 13 C-3.05144467 15.87939273 -6.41259651 17.01725074 -10.34765625 18.33984375 C-11.59353516 18.76330078 -12.83941406 19.18675781 -14.12304688 19.62304688 C-15.43609956 20.06149258 -16.74925117 20.49964216 -18.0625 20.9375 C-19.98556618 21.58579263 -21.90791714 22.23617066 -23.83016968 22.88687134 C-25.69904228 23.5193521 -27.56851175 24.1500683 -29.43798828 24.78076172 C-34.31780687 26.45107111 -39.16372651 28.20797394 -44 30 C-40.85953618 32.09364255 -38.04835047 33.16310772 -34.49609375 34.42578125 C-33.18420794 34.89768403 -31.87236026 35.3696928 -30.56054688 35.84179688 C-28.51010997 36.57432197 -26.45899938 37.30487169 -24.40698242 38.03295898 C-2.43466135 45.84800797 -2.43466135 45.84800797 1 51 C1.37109375 52.9375 1.37109375 52.9375 1.4375 55 C1.49744141 56.0209375 1.49744141 56.0209375 1.55859375 57.0625 C1 59 1 59 -1.00390625 60.91015625 C-5.3270743 62.48272976 -8.29172592 61.04927496 -12.375 59.4375 C-13.2191748 59.12321045 -14.06334961 58.8089209 -14.93310547 58.48510742 C-17.96489588 57.34705037 -20.98191011 56.1738997 -24 55 C-25.93684871 54.25671361 -27.87466651 53.51598686 -29.81246948 52.77519226 C-37.08708114 49.99242798 -44.35180042 47.18493891 -51.59863281 44.33056641 C-53.75291379 43.48784236 -55.91315208 42.6600643 -58.08105469 41.85302734 C-58.97985352 41.51352051 -59.87865234 41.17401367 -60.8046875 40.82421875 C-61.57538574 40.54022217 -62.34608398 40.25622559 -63.14013672 39.96362305 C-65 39 -65 39 -67 36 C-67.30078125 33.40625 -67.30078125 33.40625 -67.3125 30.5 C-67.32925781 29.5409375 -67.34601563 28.581875 -67.36328125 27.59375 C-66.93228032 24.51649607 -66.32897179 23.95336979 -64 22 C-62.1658783 21.07891846 -62.1658783 21.07891846 -60.08959961 20.30175781 C-59.30705307 20.00424622 -58.52450653 19.70673462 -57.71824646 19.40020752 C-56.44812462 18.93140167 -56.44812462 18.93140167 -55.15234375 18.453125 C-54.26704483 18.11883484 -53.38174591 17.78454468 -52.46961975 17.44012451 C-49.62839436 16.36908047 -46.7831418 15.30924729 -43.9375 14.25 C-41.15663305 13.20641718 -38.37663767 12.16054256 -35.59683228 11.11413574 C-33.76180009 10.42457427 -31.9258419 9.73747195 -30.08895874 9.05285645 C-25.62126768 7.3842206 -21.1739929 5.68119114 -16.75439453 3.88867188 C-15.93089005 3.5572821 -15.10738556 3.22589233 -14.25892639 2.88446045 C-12.71389402 2.259581 -11.17246748 1.62568244 -9.63548279 0.98126221 C-5.94436232 -0.50631708 -3.79467483 -1.21986697 0 0 Z M-9.62719727 4.00366211 C-10.80504288 4.44089096 -11.98288849 4.87811981 -13.19642639 5.32859802 C-14.48647631 5.81136196 -15.77646822 6.29428092 -17.06640625 6.77734375 C-18.38386968 7.26840034 -19.70141121 7.75924745 -21.01902771 8.24989319 C-23.78129517 9.27932668 -26.54268417 10.31107366 -29.3034668 11.34448242 C-32.84862494 12.67132107 -36.3957645 13.99276568 -39.94355869 15.31253719 C-42.6645604 16.32534617 -45.38456349 17.34081433 -48.1042614 18.35711861 C-49.41215798 18.84552735 -50.72035158 19.33314145 -52.02884102 19.81995964 C-53.85429333 20.49960708 -55.67828408 21.18317626 -57.50219727 21.86694336 C-59.06201073 22.4498539 -59.06201073 22.4498539 -60.65333557 23.04454041 C-62.91969943 23.79028098 -62.91969943 23.79028098 -64 25 C-64.07244053 27.01964199 -64.08377188 29.04167124 -64.0625 31.0625 C-64.05347656 32.16722656 -64.04445312 33.27195312 -64.03515625 34.41015625 C-64.02355469 35.26480469 -64.01195312 36.11945313 -64 37 C-56.36132685 39.87422347 -48.72069687 42.743156 -41.07750225 45.60533142 C-37.52862996 46.93448064 -33.98046296 48.26545071 -30.43383789 49.60058594 C-27.01194879 50.88868764 -23.58829951 52.17200087 -20.16337013 53.45199585 C-18.85617891 53.94149202 -17.54963419 54.43271821 -16.24374962 54.9256897 C-14.41641071 55.61517505 -12.58655488 56.29797871 -10.7565918 56.98046875 C-9.71512497 57.37129639 -8.67365814 57.76212402 -7.60063171 58.16479492 C-4.97919045 59.15288641 -4.97919045 59.15288641 -2 59 C-2 56.03 -2 53.06 -2 50 C-12.43127127 45.47951863 -23.07629661 41.58927387 -33.75 37.6875 C-35.52612962 37.03604705 -37.30217196 36.38435607 -39.078125 35.73242188 C-43.38441644 34.1522051 -47.6918722 32.57520308 -52 31 C-41.56872873 26.47951863 -30.92370339 22.58927387 -20.25 18.6875 C-18.47387038 18.03604705 -16.69782804 17.38435607 -14.921875 16.73242188 C-10.61558356 15.1522051 -6.3081278 13.57520308 -2 12 C-2 8.7 -2 5.4 -2 2 C-4.82397126 2 -6.97908476 3.01682951 -9.62719727 4.00366211 Z " fill="#20262E" transform="translate(215,224)"/>
<path d="M0 0 C1.43472656 0.05994141 1.43472656 0.05994141 2.8984375 0.12109375 C3.86007812 0.14300781 4.82171875 0.16492188 5.8125 0.1875 C8.2734375 0.55859375 8.2734375 0.55859375 10.2734375 2.55859375 C9.90816596 7.1172976 8.45826981 11.00554964 6.74609375 15.21875 C6.48561752 15.86494293 6.2251413 16.51113586 5.95677185 17.1769104 C5.3881067 18.58545391 4.81663189 19.99286563 4.24267578 21.39926147 C3.31782841 23.66546747 2.40021035 25.93448384 1.484375 28.2043457 C0.14455902 31.52362887 -1.19808226 34.84174992 -2.54248047 38.15917969 C-6.06734711 46.86466244 -9.55782365 55.583954 -13.04788208 64.30343628 C-14.19919003 67.17775649 -15.35319578 70.05098174 -16.50756836 72.92407227 C-20.71818682 83.4206438 -24.79562644 93.95437039 -28.7265625 104.55859375 C-29.77164604 107.33703119 -30.83503082 110.10550835 -31.9140625 112.87109375 C-32.38199219 114.08410156 -32.84992188 115.29710937 -33.33203125 116.546875 C-35.40483397 121.02343213 -35.40483397 121.02343213 -37.7265625 122.55859375 C-40.35546875 122.95703125 -40.35546875 122.95703125 -43.2890625 122.93359375 C-44.25972656 122.94132812 -45.23039063 122.9490625 -46.23046875 122.95703125 C-47.05417969 122.82554687 -47.87789062 122.6940625 -48.7265625 122.55859375 C-50.7265625 119.55859375 -50.7265625 119.55859375 -50.56640625 116.91479492 C-49.51344863 112.70694366 -47.96931303 108.85141764 -46.2890625 104.859375 C-45.7609346 103.58196442 -45.7609346 103.58196442 -45.22213745 102.27874756 C-44.46037963 100.4372159 -43.69594968 98.59678779 -42.92913818 96.75735474 C-40.87064544 91.81683632 -38.83429156 86.8672078 -36.796875 81.91796875 C-36.3766507 80.8982045 -35.95642639 79.87844025 -35.52346802 78.82777405 C-31.12285146 68.12904137 -26.84772778 57.3818888 -22.6015625 46.62109375 C-22.26092773 45.75972809 -21.92029297 44.89836243 -21.56933594 44.01089478 C-20.57571417 41.49753647 -19.58423456 38.98334615 -18.59375 36.46875 C-18.11817657 35.26355461 -18.11817657 35.26355461 -17.63299561 34.03401184 C-15.9089198 29.64411993 -14.23072579 25.24089088 -12.59863281 20.81591797 C-12.24495636 19.86406113 -11.89127991 18.91220428 -11.52688599 17.9315033 C-10.85036501 16.10519768 -10.18149834 14.27603148 -9.521698 12.44361877 C-5.30478205 1.08679632 -5.30478205 1.08679632 0 0 Z M-2.7265625 2.55859375 C-10.8503926 23.00958335 -18.97123106 43.46175887 -27.08937168 63.91500759 C-29.01574616 68.76826025 -30.94273599 73.62126816 -32.87011719 78.47412109 C-35.14255495 84.19607242 -37.41337662 89.91866198 -39.68270874 95.6418457 C-40.50325398 97.71044374 -41.32440018 99.77880349 -42.14614868 101.84692383 C-43.27219384 104.68117813 -44.39615044 107.51625133 -45.51953125 110.3515625 C-45.84944061 111.18052536 -46.17934998 112.00948822 -46.51925659 112.86357117 C-48.04751962 116.11943245 -48.04751962 116.11943245 -48.7265625 119.55859375 C-45.0965625 119.55859375 -41.4665625 119.55859375 -37.7265625 119.55859375 C-29.91988867 100.56938713 -22.33073497 81.5006205 -14.81507874 62.39476013 C-12.25318859 55.88604251 -9.67542582 49.38370396 -7.09375 42.8828125 C-5.93283874 39.95683641 -4.77209765 37.03079286 -3.61138916 34.10473633 C-2.86200941 32.21703934 -2.11182173 30.32966285 -1.36077881 28.44262695 C-0.30859872 25.79856916 0.74052059 23.15331478 1.7890625 20.5078125 C2.09780304 19.73434982 2.40654358 18.96088715 2.72463989 18.16398621 C4.76073028 13.01595302 6.56041295 7.82324136 8.2734375 2.55859375 C4.6434375 2.55859375 1.0134375 2.55859375 -2.7265625 2.55859375 Z " fill="#21262C" transform="translate(267.7265625,195.44140625)"/>
<path d="M0 0 C0.33 0 0.66 0 1 0 C1.27599507 1.76696843 1.51996915 3.53896215 1.75 5.3125 C1.88921875 6.29863281 2.0284375 7.28476563 2.171875 8.30078125 C2 11 2 11 0.38598633 12.52246094 C-2.44337263 14.27456167 -5.19196922 15.27920176 -8.34765625 16.33984375 C-9.59353516 16.76330078 -10.83941406 17.18675781 -12.12304688 17.62304688 C-13.43609956 18.06149258 -14.74925117 18.49964216 -16.0625 18.9375 C-17.98556618 19.58579263 -19.90791714 20.23617066 -21.83016968 20.88687134 C-23.69904228 21.5193521 -25.56851175 22.1500683 -27.43798828 22.78076172 C-32.31780687 24.45107111 -37.16372651 26.20797394 -42 28 C-38.85953618 30.09364255 -36.04835047 31.16310772 -32.49609375 32.42578125 C-31.18420794 32.89768403 -29.87236026 33.3696928 -28.56054688 33.84179688 C-26.51010997 34.57432197 -24.45899938 35.30487169 -22.40698242 36.03295898 C-0.43466135 43.84800797 -0.43466135 43.84800797 3 49 C3.25760279 51.69452521 3.08900053 54.28548375 3 57 C1.02 57.495 1.02 57.495 -1 58 C-1 54.7 -1 51.4 -1 48 C-2.3725293 47.49549316 -3.74505859 46.99098633 -5.15917969 46.47119141 C-10.25151147 44.59868669 -15.34271953 42.72314316 -20.43359375 40.84667969 C-22.6370642 40.03497723 -24.84083848 39.22409908 -27.04492188 38.4140625 C-30.21304286 37.24956398 -33.38005919 36.08210499 -36.546875 34.9140625 C-37.53242371 34.55253082 -38.51797241 34.19099915 -39.53338623 33.81851196 C-40.4540387 33.47831024 -41.37469116 33.13810852 -42.32324219 32.78759766 C-43.53569611 32.34125473 -43.53569611 32.34125473 -44.77264404 31.88589478 C-46.91821587 31.03252831 -48.95245628 30.0650462 -51 29 C-48.8048932 26.8048932 -47.38167826 26.25595407 -44.49023438 25.21240234 C-43.55586548 24.87220062 -42.62149658 24.5319989 -41.65881348 24.18148804 C-40.64734253 23.81995636 -39.63587158 23.45842468 -38.59375 23.0859375 C-37.55810913 22.71143463 -36.52246826 22.33693176 -35.45544434 21.95108032 C-33.26407039 21.16001224 -31.07169812 20.37170507 -28.87841797 19.5859375 C-25.51152876 18.37913229 -22.14814541 17.16293802 -18.78515625 15.9453125 C-16.65905538 15.17912892 -14.53275974 14.41348555 -12.40625 13.6484375 C-11.39477905 13.28285736 -10.38330811 12.91727722 -9.34118652 12.5406189 C-8.40681763 12.2067215 -7.47244873 11.8728241 -6.50976562 11.52880859 C-5.68528931 11.23283783 -4.86081299 10.93686707 -4.01135254 10.63192749 C-2 10 -2 10 0 10 C0 6.7 0 3.4 0 0 Z " fill="#29343A" transform="translate(213,226)"/>
<path d="M0 0 C0.33 0 0.66 0 1 0 C1.81663946 7.26599727 -1.10409149 13.02086804 -3.875 19.625 C-4.40325358 20.91039636 -4.9300636 22.19638676 -5.45556641 23.48291016 C-6.63134592 26.35957584 -7.81249404 29.23396572 -8.99609375 32.10742188 C-12.45054067 40.51738598 -15.81314745 48.96461655 -19.18756104 57.40692139 C-20.34883732 60.30960473 -21.51364082 63.21085029 -22.67919922 66.11181641 C-27.26959925 77.55382094 -31.70552278 89.03868664 -35.95947266 100.60986328 C-36.67010726 102.53574825 -37.39645979 104.45581694 -38.125 106.375 C-38.58132812 107.59960938 -39.03765625 108.82421875 -39.5078125 110.0859375 C-41.1382895 113.27006273 -41.86051194 113.65335659 -45 115 C-42.70424479 107.85961502 -40.05493359 100.90937059 -37.2734375 93.9453125 C-36.58233635 92.2061129 -36.58233635 92.2061129 -35.87727356 90.43177795 C-34.8900918 87.94832735 -33.9020543 85.46523966 -32.91244507 82.98275757 C-31.36279441 79.0953415 -29.81644128 75.20661952 -28.27075195 71.31762695 C-26.7019507 67.37079832 -25.13303376 63.42401634 -23.56300354 59.47767639 C-18.75348039 47.38793604 -13.96713896 35.2890824 -9.1875 23.1875 C-8.14230634 20.54175236 -7.09704382 17.89603196 -6.05168152 15.25035095 C-5.44470362 13.71407853 -4.83785046 12.17775682 -4.2311554 10.64137268 C-2.82872519 7.09103204 -1.42119633 3.54287325 0 0 Z " fill="#252A2F" transform="translate(274,202)"/>
<path d="M0 0 C6.42470887 -0.49213808 11.33758611 1.2440386 17.30859375 3.5 C18.27531509 3.85513672 19.24203644 4.21027344 20.23805237 4.57617188 C23.30855279 5.70690471 26.37297689 6.85317901 29.4375 8 C31.52500829 8.77186813 33.61289528 9.54271291 35.70117188 10.3125 C40.80522644 12.19650411 45.90438967 14.0932833 51 16 C48.76250261 18.23749739 47.24795744 18.78784453 44.29077148 19.84765625 C43.31313339 20.20142334 42.3354953 20.55519043 41.32823181 20.91967773 C40.26987625 21.29680908 39.21152069 21.67394043 38.12109375 22.0625 C35.89906779 22.86713019 33.67706323 23.67181948 31.45507812 24.4765625 C27.93769828 25.74271086 24.41947314 27.00646563 20.90063477 28.26855469 C17.51359903 29.48556718 14.12975392 30.71114001 10.74609375 31.9375 C9.68571396 32.31463135 8.62533417 32.6917627 7.53282166 33.08032227 C6.55833572 33.43408936 5.58384979 33.78785645 4.57983398 34.15234375 C3.28649391 34.6162854 3.28649391 34.6162854 1.96702576 35.08959961 C-0.17665469 35.83342349 -0.17665469 35.83342349 -1 38 C-1.66 38 -2.32 38 -3 38 C-1.59647076 33.37857664 -1.59647076 33.37857664 1.02099609 31.71728516 C1.84680176 31.41097168 2.67260742 31.1046582 3.5234375 30.7890625 C4.45341553 30.43448975 5.38339355 30.07991699 6.34155273 29.71459961 C7.34259033 29.35503174 8.34362793 28.99546387 9.375 28.625 C10.394729 28.24287354 11.41445801 27.86074707 12.46508789 27.46704102 C15.63532126 26.28767594 18.81498801 25.13879989 22 24 C23.00434082 23.63986816 24.00868164 23.27973633 25.04345703 22.90869141 C30.68138664 20.89655484 36.33352495 18.93020125 42 17 C38.42730864 14.61820576 34.71445536 13.40168161 30.68359375 12.03125 C29.01625391 11.45449105 27.34893689 10.87766614 25.68164062 10.30078125 C23.05310887 9.39710804 20.42393282 8.49535606 17.79418945 7.59521484 C15.25561798 6.72458992 12.7195334 5.84700567 10.18359375 4.96875 C9.39399765 4.70098755 8.60440155 4.4332251 7.7908783 4.15734863 C2.22617226 2.22617226 2.22617226 2.22617226 0 0 Z " fill="#1D2831" transform="translate(287,238)"/>
<path d="M0 0 C-1.02614642 3.00045373 -1.76008259 3.87610475 -4.6262207 5.35620117 C-5.71507568 5.74783447 -6.80393066 6.13946777 -7.92578125 6.54296875 C-9.70952148 7.19362305 -9.70952148 7.19362305 -11.52929688 7.85742188 C-12.79036416 8.30078245 -14.05143187 8.74414182 -15.3125 9.1875 C-17.1677832 9.86329102 -17.1677832 9.86329102 -19.06054688 10.55273438 C-30.33221185 14.61443105 -30.33221185 14.61443105 -34 15 C-34.99 14.34 -35.98 13.68 -37 13 C-37.40843923 10.28796348 -37.13336867 7.7562858 -37 5 C-36.34 5 -35.68 5 -35 5 C-34.67 4.34 -34.34 3.68 -34 3 C-34 5.97 -34 8.94 -34 12 C-33.04109863 11.63648438 -32.08219727 11.27296875 -31.09423828 10.8984375 C-27.54340436 9.55332128 -23.99095172 8.212527 -20.43798828 6.87304688 C-18.89912983 6.29219847 -17.36071564 5.7101717 -15.82275391 5.12695312 C-13.61475923 4.28987971 -11.40521269 3.45702756 -9.1953125 2.625 C-8.50567413 2.36251465 -7.81603577 2.1000293 -7.10549927 1.82958984 C-2.22774341 0 -2.22774341 0 0 0 Z " fill="#2C3238" transform="translate(321,271)"/>
<path d="M0 0 C0.99 0.66 1.98 1.32 3 2 C3.36328125 4.2421875 3.36328125 4.2421875 3.3125 6.875 C3.30863281 7.73867187 3.30476563 8.60234375 3.30078125 9.4921875 C2.96574291 12.28562403 2.58167214 13.67069996 1 16 C-1.765625 17.47973633 -1.765625 17.47973633 -5.25 18.83203125 C-6.17087402 19.19333382 -6.17087402 19.19333382 -7.11035156 19.56193542 C-8.40563381 20.06673209 -9.70357597 20.56474933 -11.00390625 21.05639648 C-12.99899521 21.81211939 -14.98397765 22.59068302 -16.96875 23.37304688 C-24.02131816 26.1030823 -24.02131816 26.1030823 -27 27 C-27.66 26.67 -28.32 26.34 -29 26 C-26.17932206 22.86928094 -23.86256275 21.27076622 -19.90234375 19.859375 C-18.93619141 19.51132812 -17.97003906 19.16328125 -16.97460938 18.8046875 C-15.97236328 18.45664062 -14.97011719 18.10859375 -13.9375 17.75 C-12.93138672 17.38648438 -11.92527344 17.02296875 -10.88867188 16.6484375 C-3.43620771 14 -3.43620771 14 0 14 C0 9.38 0 4.76 0 0 Z " fill="#1E2830" transform="translate(349,247)"/>
<path d="M0 0 C0.33 0 0.66 0 1 0 C1.57815364 6.58553126 -0.44071449 11.43268991 -3 17.4375 C-3.57234375 18.82098633 -3.57234375 18.82098633 -4.15625 20.23242188 C-5.09321571 22.49285165 -6.04511975 24.7470794 -7 27 C-4.03 27.33 -1.06 27.66 2 28 C2.33 28.99 2.66 29.98 3 31 C1.20906809 31.08086147 -0.58289628 31.13912702 -2.375 31.1875 C-3.87160156 31.23970703 -3.87160156 31.23970703 -5.3984375 31.29296875 C-6.25695312 31.19628906 -7.11546875 31.09960938 -8 31 C-10 28 -10 28 -9.75415039 25.14990234 C-9.03350631 22.13994769 -8.12510386 19.45447404 -6.93359375 16.6015625 C-6.53076172 15.62832031 -6.12792969 14.65507812 -5.71289062 13.65234375 C-5.29201172 12.65332031 -4.87113281 11.65429688 -4.4375 10.625 C-4.01275391 9.60277344 -3.58800781 8.58054687 -3.15039062 7.52734375 C-2.10587881 5.01582095 -1.05560951 2.50687381 0 0 Z " fill="#1C212D" transform="translate(227,287)"/>
<path d="M0 0 C1.45599609 0.00580078 1.45599609 0.00580078 2.94140625 0.01171875 C5.4375 0.3125 5.4375 0.3125 7.4375 2.3125 C7.11332137 6.12159895 6.58168558 8.09622163 4.4375 11.3125 C4.3125 4.5625 4.3125 4.5625 5.4375 2.3125 C1.8075 2.3125 -1.8225 2.3125 -5.5625 2.3125 C-5.954375 3.715 -6.34625 5.1175 -6.75 6.5625 C-8.57053349 12.67179028 -11.02367209 18.47219231 -13.5625 24.3125 C-14.5525 23.9825 -15.5425 23.6525 -16.5625 23.3125 C-15.3044649 20.03659984 -14.02890093 16.76780465 -12.75 13.5 C-12.39357422 12.57123047 -12.03714844 11.64246094 -11.66992188 10.68554688 C-11.31865234 9.79287109 -10.96738281 8.90019531 -10.60546875 7.98046875 C-10.28602295 7.15828857 -9.96657715 6.3361084 -9.63745117 5.48901367 C-7.29229147 0.74063785 -5.2114034 -0.09021071 0 0 Z " fill="#242930" transform="translate(270.5625,195.6875)"/>
<path d="M0 0 C-0.33 0.99 -0.66 1.98 -1 3 C-1.22325814 5.05893621 -1.40705759 7.12233653 -1.5625 9.1875 C-1.64628906 10.27417969 -1.73007813 11.36085938 -1.81640625 12.48046875 C-1.87699219 13.31191406 -1.93757812 14.14335937 -2 15 C-0.83404297 15.21462891 -0.83404297 15.21462891 0.35546875 15.43359375 C2.87786006 15.97384004 4.75804088 16.75446715 7 18 C7 18.66 7 19.32 7 20 C5.3713449 19.57630928 3.74712622 19.1355377 2.125 18.6875 C1.22007812 18.44386719 0.31515625 18.20023437 -0.6171875 17.94921875 C-3 17 -3 17 -5 14 C-5.30078125 11.40625 -5.30078125 11.40625 -5.3125 8.5 C-5.32925781 7.5409375 -5.34601563 6.581875 -5.36328125 5.59375 C-5 3 -5 3 -3.60546875 1.15625 C-2 0 -2 0 0 0 Z " fill="#181D28" transform="translate(153,246)"/>
<path d="M0 0 C4.63928488 0.27289911 9.12363469 2.51844163 13 5 C15.67927341 9.01891012 15.15601248 11.24161923 15 16 C13.68 16.33 12.36 16.66 11 17 C11 13.7 11 10.4 11 7 C6.71 5.35 2.42 3.7 -2 2 C-1.34 1.34 -0.68 0.68 0 0 Z " fill="#333945" transform="translate(201,267)"/>
<path d="M0 0 C0.99 0.33 1.98 0.66 3 1 C-0.3 9.25 -3.6 17.5 -7 26 C-7.33 26 -7.66 26 -8 26 C-7.52800371 19.30563004 -6.14411108 14.05283315 -3.4375 7.9375 C-3.10814453 7.16728516 -2.77878906 6.39707031 -2.43945312 5.60351562 C-1.63697508 3.73106685 -0.82001391 1.86483582 0 0 Z " fill="#222532" transform="translate(254,220)"/>
<path d="M0 0 C0.33 0 0.66 0 1 0 C1.27599507 1.76696843 1.51996915 3.53896215 1.75 5.3125 C1.88921875 6.29863281 2.0284375 7.28476563 2.171875 8.30078125 C2 11 2 11 0.34375 12.75 C-2.16269487 14.0867706 -4.51326395 14.93129662 -7.25 15.6875 C-8.58804688 16.06455078 -8.58804688 16.06455078 -9.953125 16.44921875 C-10.62859375 16.63097656 -11.3040625 16.81273437 -12 17 C-11.3203125 15.109375 -11.3203125 15.109375 -10 13 C-7.6171875 11.953125 -7.6171875 11.953125 -4.875 11.25 C-3.50988281 10.88648438 -3.50988281 10.88648438 -2.1171875 10.515625 C-1.06917969 10.26039063 -1.06917969 10.26039063 0 10 C0 6.7 0 3.4 0 0 Z " fill="#262A2F" transform="translate(213,226)"/>
<path d="M0 0 C1.0625 1.8125 1.0625 1.8125 2 4 C1.67 4.99 1.34 5.98 1 7 C3.97 7.33 6.94 7.66 10 8 C10.33 8.99 10.66 9.98 11 11 C9.20906809 11.08086147 7.41710372 11.13912702 5.625 11.1875 C4.12839844 11.23970703 4.12839844 11.23970703 2.6015625 11.29296875 C1.74304688 11.19628906 0.88453125 11.09960938 0 11 C-2 8 -2 8 -1.6875 4.9375 C-1 2 -1 2 0 0 Z " fill="#141A23" transform="translate(219,307)"/>
<path d="M0 0 C0.66 0.66 1.32 1.32 2 2 C1.59530729 5.99110737 0.1272453 9.5535661 -1.375 13.25 C-1.79523438 14.30703125 -2.21546875 15.3640625 -2.6484375 16.453125 C-4 19 -4 19 -7 20 C-5.07443364 13.14381674 -2.7527517 6.56747868 0 0 Z " fill="#2C3136" transform="translate(262,232)"/>
<path d="M0 0 C0.66 0 1.32 0 2 0 C-0.19037174 6.72045875 -2.55765661 13.36724003 -5 20 C-5.66 20 -6.32 20 -7 20 C-6.56999948 13.69332572 -4.57144825 4.57144825 0 0 Z " fill="#2B2E35" transform="translate(255,252)"/>
<path d="M0 0 C0.99 0.66 1.98 1.32 3 2 C3.36328125 4.2421875 3.36328125 4.2421875 3.3125 6.875 C3.30863281 7.73867187 3.30476563 8.60234375 3.30078125 9.4921875 C2.9853505 12.12214257 2.43094647 13.78077775 1 16 C-1.125 16.75 -1.125 16.75 -3 17 C-3 16.01 -3 15.02 -3 14 C-2.01 14 -1.02 14 0 14 C0 9.38 0 4.76 0 0 Z " fill="#13191E" transform="translate(349,247)"/>
<path d="M0 0 C1.485 0.99 1.485 0.99 3 2 C2.67 5.3 2.34 8.6 2 12 C3.32 12.66 4.64 13.32 6 14 C3.625 14.125 3.625 14.125 1 14 C-1 12 -1 12 -1.23046875 9.43359375 C-1.21628906 8.44488281 -1.20210938 7.45617187 -1.1875 6.4375 C-1.18105469 5.44621094 -1.17460937 4.45492187 -1.16796875 3.43359375 C-1 1 -1 1 0 0 Z " fill="#31434C" transform="translate(285,224)"/>
<path d="M0 0 C0.98871094 -0.01417969 1.97742188 -0.02835938 2.99609375 -0.04296875 C5.5625 0.1875 5.5625 0.1875 7.5625 2.1875 C7.23832137 5.99659895 6.70668558 7.97122163 4.5625 11.1875 C4.4375 4.4375 4.4375 4.4375 5.5625 2.1875 C1.9325 2.1875 -1.6975 2.1875 -5.4375 2.1875 C-5.7675 2.8475 -6.0975 3.5075 -6.4375 4.1875 C-6.4375 -0.84481095 -4.49463465 0.02922389 0 0 Z " fill="#16192D" transform="translate(270.4375,195.8125)"/>
<path d="M0 0 C6.22413434 -0.54122907 11.55127662 0.87898795 17 4 C17.33 4.99 17.66 5.98 18 7 C11.89262558 5.23536928 5.92566493 3.30442525 0 1 C0 0.67 0 0.34 0 0 Z " fill="#21242A" transform="translate(287,238)"/>
<path d="M0 0 C1.13671875 1.61328125 1.13671875 1.61328125 2 4 C1.20703125 6.98046875 1.20703125 6.98046875 -0.1875 10.1875 C-0.85845703 11.78658203 -0.85845703 11.78658203 -1.54296875 13.41796875 C-3 16 -3 16 -6 17 C-4.13236819 11.27789404 -2.14710968 5.62338249 0 0 Z " fill="#313A41" transform="translate(247,270)"/>
<path d="M0 0 C5.63797249 -0.34518199 9.11239987 0.36069593 14 3 C14.33 3.99 14.66 4.98 15 6 C4.44191344 2.92482916 4.44191344 2.92482916 0 1 C0 0.67 0 0.34 0 0 Z " fill="#1B252A" transform="translate(173,271)"/>
<path d="M0 0 C0.33 0 0.66 0 1 0 C1 2.97 1 5.94 1 9 C1.66 9 2.32 9 3 9 C3 9.99 3 10.98 3 12 C0.525 11.01 0.525 11.01 -2 10 C-2 7.36 -2 4.72 -2 2 C-1.34 2 -0.68 2 0 2 C0 1.34 0 0.68 0 0 Z " fill="#344751" transform="translate(286,274)"/>
<path d="M0 0 C0 0.66 0 1.32 0 2 C2.475 2.99 2.475 2.99 5 4 C4.34 4.66 3.68 5.32 3 6 C0.87109375 5.828125 0.87109375 5.828125 -1.5625 5.25 C-2.77099609 4.97929687 -2.77099609 4.97929687 -4.00390625 4.703125 C-6 4 -6 4 -7 2 C-2.25 0 -2.25 0 0 0 Z " fill="#363A47" transform="translate(169,252)"/>
<path d="M0 0 C-1 2 -1 2 -3.0625 3.125 C-6.86725273 4.2583306 -10.0368828 4.13434296 -14 4 C-11.58592302 2.39061535 -9.65955563 1.34509262 -7 0.3125 C-5.9790625 -0.09548828 -5.9790625 -0.09548828 -4.9375 -0.51171875 C-3 -1 -3 -1 0 0 Z " fill="#323844" transform="translate(346,263)"/>
<path d="M0 0 C0.33 1.98 0.66 3.96 1 6 C0.01 6.495 0.01 6.495 -1 7 C-1 5.35 -1 3.7 -1 2 C-2.423125 2.309375 -2.423125 2.309375 -3.875 2.625 C-4.90625 2.74875 -5.9375 2.8725 -7 3 C-7.66 2.34 -8.32 1.68 -9 1 C-5.57367167 -0.61798838 -3.61944899 -1.34053666 0 0 Z " fill="#1B1E2A" transform="translate(215,224)"/>
<path d="M0 0 C3.96 1.32 7.92 2.64 12 4 C9.8614515 6.1385485 8.86724686 6.42655063 6 7 C6 6.01 6 5.02 6 4 C3.03 3.505 3.03 3.505 0 3 C0 2.01 0 1.02 0 0 Z " fill="#2A2E39" transform="translate(326,250)"/>
<path d="M0 0 C0.99 0.33 1.98 0.66 3 1 C1.68 4.3 0.36 7.6 -1 11 C-1.66 10.67 -2.32 10.34 -3 10 C-2.39009109 6.44219804 -1.4216319 3.3171411 0 0 Z " fill="#2C303B" transform="translate(254,220)"/>
<path d="M0 0 C0.66 0 1.32 0 2 0 C1.54738642 1.43931117 1.08767021 2.87638999 0.625 4.3125 C0.36976563 5.11300781 0.11453125 5.91351563 -0.1484375 6.73828125 C-1 9 -1 9 -3 12 C-2.88541307 10.56163249 -2.75790884 9.12429034 -2.625 7.6875 C-2.55539063 6.88699219 -2.48578125 6.08648437 -2.4140625 5.26171875 C-2 3 -2 3 0 0 Z " fill="#1E212E" transform="translate(255,252)"/>
<path d="M0 0 C0.66 0.33 1.32 0.66 2 1 C1.75 3.875 1.75 3.875 1 7 C-0.98 7.99 -0.98 7.99 -3 9 C-2.01 6.03 -1.02 3.06 0 0 Z " fill="#2A343C" transform="translate(232,308)"/>
<path d="M0 0 C1 2 1 2 0.44140625 3.9453125 C0.15136719 4.66460937 -0.13867188 5.38390625 -0.4375 6.125 C-0.72496094 6.84945313 -1.01242188 7.57390625 -1.30859375 8.3203125 C-1.53675781 8.87460937 -1.76492187 9.42890625 -2 10 C-2.66 9.34 -3.32 8.68 -4 8 C-3.8125 5 -3.8125 5 -3 2 C-2.01 1.34 -1.02 0.68 0 0 Z " fill="#202329" transform="translate(237,301)"/>
<path d="M0 0 C0.66 1.32 1.32 2.64 2 4 C0.625 7.25 0.625 7.25 -1 10 C-1.66 10 -2.32 10 -3 10 C-2.01 6.7 -1.02 3.4 0 0 Z " fill="#343C41" transform="translate(258,242)"/>
<path d="M0 0 C0.8971875 0.5259375 0.8971875 0.5259375 1.8125 1.0625 C0.54642393 1.59479326 -0.72560412 2.11294544 -2 2.625 C-2.70769531 2.91503906 -3.41539062 3.20507812 -4.14453125 3.50390625 C-6.1875 4.0625 -6.1875 4.0625 -9.1875 3.0625 C-3.45766129 -1.48185484 -3.45766129 -1.48185484 0 0 Z " fill="#282D32" transform="translate(177.1875,237.9375)"/>
<path d="M0 0 C1.24142712 4.96570849 0.37261666 7.15547062 -1 12 C-1.99 11.67 -2.98 11.34 -4 11 C-2.68 7.37 -1.36 3.74 0 0 Z " fill="#1A1C26" transform="translate(258,208)"/>
<path d="M0 0 C0.66 0.66 1.32 1.32 2 2 C1.875 4.5 1.875 4.5 1 7 C-0.98 7.99 -0.98 7.99 -3 9 C-2.01 6.03 -1.02 3.06 0 0 Z " fill="#32363C" transform="translate(238,293)"/>
<path d="M0 0 C3.55780196 0.60990891 6.6828589 1.5783681 10 3 C10 3.33 10 3.66 10 4 C3.375 4.25 3.375 4.25 0 2 C0 1.34 0 0.68 0 0 Z " fill="#1A1E23" transform="translate(286,223)"/>
<path d="M0 0 C1.45922693 0.11409593 2.91740598 0.24165544 4.375 0.375 C5.59316406 0.47941406 5.59316406 0.47941406 6.8359375 0.5859375 C9 1 9 1 11 3 C7.59068103 4.13643966 6.99664544 3.86747764 3.8125 2.5625 C3.09707031 2.27503906 2.38164062 1.98757812 1.64453125 1.69140625 C1.10183594 1.46324219 0.55914062 1.23507813 0 1 C0 0.67 0 0.34 0 0 Z " fill="#18232A" transform="translate(315,248)"/>
<path d="M0 0 C6.625 -0.125 6.625 -0.125 10 1 C10 1.99 10 2.98 10 4 C6.7 3.01 3.4 2.02 0 1 C0 0.67 0 0.34 0 0 Z " fill="#2F3941" transform="translate(339,245)"/>
<path d="M0 0 C0.33 0 0.66 0 1 0 C1.33 3.63 1.66 7.26 2 11 C1.01 11.495 1.01 11.495 0 12 C-0.66 11.34 -1.32 10.68 -2 10 C-1.34 10 -0.68 10 0 10 C0 6.7 0 3.4 0 0 Z " fill="#4C5E67" transform="translate(213,226)"/>
<path d="M0 0 C0.99 0 1.98 0 3 0 C2.34 2.31 1.68 4.62 1 7 C0.34 7 -0.32 7 -1 7 C-0.67 4.69 -0.34 2.38 0 0 Z " fill="#1F2637" transform="translate(221,302)"/>
<path d="M0 0 C0 0.66 0 1.32 0 2 C-2.64 2.66 -5.28 3.32 -8 4 C-7.67 3.01 -7.34 2.02 -7 1 C-4 0 -4 0 0 0 Z " fill="#222535" transform="translate(177,250)"/>
<path d="M0 0 C0.33 0 0.66 0 1 0 C1 2.31 1 4.62 1 7 C-0.98 7.99 -0.98 7.99 -3 9 C-2.01 6.03 -1.02 3.06 0 0 Z " fill="#373D47" transform="translate(274,202)"/>
<path d="M0 0 C-0.66 1.32 -1.32 2.64 -2 4 C-4.97 3.505 -4.97 3.505 -8 3 C-5.22569089 1.15046059 -3.35957737 0 0 0 Z " fill="#393D44" transform="translate(308,276)"/>
<path d="M0 0 C0.66 0 1.32 0 2 0 C1.67 1.65 1.34 3.3 1 5 C-0.32 5.33 -1.64 5.66 -3 6 C-3 5.01 -3 4.02 -3 3 C-2.01 3 -1.02 3 0 3 C0 2.01 0 1.02 0 0 Z " fill="#1D2230" transform="translate(349,258)"/>
<path d="M0 0 C2.97 0.495 2.97 0.495 6 1 C6.33 1.99 6.66 2.98 7 4 C4.36 3.34 1.72 2.68 -1 2 C-0.67 1.34 -0.34 0.68 0 0 Z " fill="#181D22" transform="translate(298,241)"/>
<path d="M0 0 C1.65 0 3.3 0 5 0 C5.66 1.32 6.32 2.64 7 4 C4.69 3.34 2.38 2.68 0 2 C0 1.34 0 0.68 0 0 Z " fill="#34393F" transform="translate(302,230)"/>
<path d="M0 0 C0 0.66 0 1.32 0 2 C-4.455 3.485 -4.455 3.485 -9 5 C-9 4.34 -9 3.68 -9 3 C-5.63316085 0.56839395 -4.26649636 0 0 0 Z " fill="#2B3138" transform="translate(208,226)"/>
</svg>
